# xmcd
#
# Track frame offsets:
#	180
#	9492
#	19547
#	28872
#	38210
#	48795
#	61627
#	72332
#	83265
#	92777
#	103890
#	113310
#	121502
#	129955
#	139415
#	150467
#	161795
#	173362
#	184080
#	193815
#	203777
#	217525
#	229732
#	237495
#	248027
#
# Disc length: 3455 seconds
#
# Revision: 2
# Processed by: cddbd v1.4PL0 Copyright (c) Steve Scherf et al.
# Submitted via: MusicWizard 6.0.2
#
DISCID=330d7d19
DTITLE=Bob Luman - Red Hot
DYEAR=1990
DGENRE=Country/Rock
TTITLE0=Red Hot
TTITLE1=Try Me
TTITLE2=Let's Think About Living
TTITLE3=I Love You Because
TTITLE4=Red Cadillac And Black Moustache
TTITLE5=The Great Snowman
TTITLE6=I Know My Baby Cares
TTITLE7=You've Got Everything
TTITLE8=My Baby Walks All Over Me
TTITLE9=Oh, Lonesome Me
TTITLE10=Everytime The World Goes Round
TTITLE11=Why Why, Bye Bye
TTITLE12=Class Of '59
TTITLE13=Whenever You're Ready
TTITLE14=Pig Latin Song
TTITLE15=Bad Bad Day
TTITLE16=Meet Mister Mud
TTITLE17=Throwin' Kisses
TTITLE18=Buttercup
TTITLE19=Dreamy Doll
TTITLE20=You Win Again
TTITLE21=Your Love
TTITLE22=All Night Long
TTITLE23=Make Up Your Mind
TTITLE24=Jealous Heart
EXTD=
EXTT0=
EXTT1=
EXTT2=
EXTT3=
EXTT4=
EXTT5=
EXTT6=
EXTT7=
EXTT8=
EXTT9=
EXTT10=
EXTT11=
EXTT12=
EXTT13=
EXTT14=
EXTT15=
EXTT16=
EXTT17=
EXTT18=
EXTT19=
EXTT20=
EXTT21=
EXTT22=
EXTT23=
EXTT24=
PLAYORDER=
